<?xml version="1.0" standalone="no"?>
<!DOCTYPE svg PUBLIC "-//W3C//DTD SVG 1.1//EN" "http://www.w3.org/Graphics/SVG/1.1/DTD/svg11.dtd" >
<svg xmlns="http://www.w3.org/2000/svg">
<metadata>Generated by IcoMoon</metadata>
<defs>
<font id="icomoon" horiz-adv-x="1024">
<font-face units-per-em="1024" ascent="960" descent="-64" />
<missing-glyph horiz-adv-x="1024" />
<glyph unicode="&#x20;" horiz-adv-x="512" d="" />
<glyph unicode="&#xe900;" d="M1024 448c0-282.77-229.23-512-512-512s-512 229.23-512 512c0 282.77 229.23 512 512 512s512-229.23 512-512z" />
<glyph unicode="&#xe901;" d="M591.040-57.92c246.735 39.621 432.96 250.994 432.96 505.862 0 0.020 0 0.040 0 0.060v-0.003q0 6.24 0 12.48l-117.76 117.76-29.92-22.88-171.2 171.040-42.24-135.84-150.88 150.88-284.16-436.16z" />
<glyph unicode="&#xe902;" d="M483.84 194.080c-126.067 67.43-210.381 198.192-210.381 348.646 0 67.181 16.81 130.435 46.454 185.786l-1.033-2.112c126.067-67.43 210.381-198.192 210.381-348.646 0-67.181-16.81-130.435-46.454-185.786l1.033 2.112z" />
<glyph unicode="&#xe903;" d="M540.16 194.080c126.067 67.43 210.381 198.192 210.381 348.646 0 67.181-16.81 130.435-46.454 185.786l1.033-2.112c-126.067-67.43-210.381-198.192-210.381-348.646 0-67.181 16.81-130.435 46.454-185.786l-1.033 2.112z" />
<glyph unicode="&#xe904;" d="M512 184.16c-217.644 0-394.080 176.436-394.080 394.080v0c217.644 0 394.080-176.436 394.080-394.080v0z" />
<glyph unicode="&#xe905;" d="M512 184.16c217.644 0 394.080 176.436 394.080 394.080v0c-217.644 0-394.080-176.436-394.080-394.080v0z" />
<glyph unicode="&#xe906;" d="M512 184.16c-71.304 71.313-115.407 169.826-115.407 278.64s44.102 207.327 115.407 278.64v0c71.304-71.313 115.407-169.826 115.407-278.64s-44.102-207.327-115.407-278.64v0z" />
<glyph unicode="&#xe907;" d="M512 184.16v0c71.304 71.313 115.407 169.826 115.407 278.64s-44.102 207.327-115.407 278.64v0z" />
<glyph unicode="&#xe908;" glyph-name="Excelcius_SVG-02" d="M327.040 74.24c0-2.080 0-4.32 0-6.56 0-0.108 0.001-0.236 0.001-0.364 0-29.053-11.804-55.348-30.877-74.353l-0.003-0.003c-5.182-5.357-8.376-12.666-8.376-20.72 0-16.467 13.349-29.816 29.816-29.816 8.412 0 16.011 3.484 21.432 9.088l0.008 0.008c29.66 29.723 48.002 70.752 48.002 116.065 0 0.258-0.001 0.517-0.002 0.775v-0.040c0 4.32 0 8.48 0 12.64-17.537-3.435-37.99-5.681-58.865-6.23l-0.495-0.010zM710.4 265.92c0.129-1.95 0.202-4.228 0.202-6.523 0-29.136-11.818-55.512-30.921-74.596l-14.401-14.401c-30.749-30.87-49.759-73.451-49.759-120.473 0-35.172 10.636-67.859 28.867-95.021l-0.388 0.614c5.426-8.042 14.503-13.261 24.8-13.261 16.47 0 29.821 13.351 29.821 29.821 0 6.173-1.876 11.908-5.088 16.666l0.067-0.106c-11.527 17.226-18.396 38.417-18.396 61.212 0 30.48 12.281 58.091 32.164 78.156l14.392 14.392c29.959 29.797 48.5 71.048 48.5 116.629 0 4.509-0.181 8.976-0.537 13.393l0.038-0.582c-17.537-3.435-37.99-5.681-58.865-6.23l-0.495-0.010zM700.64 960c-175.229 0-317.28-142.051-317.28-317.28s142.051-317.28 317.28-317.28c175.229 0 317.28 142.051 317.28 317.28v0c-0.182 175.156-142.124 317.098-317.263 317.28h-0.017zM635.68 755.2c-29.531-17.172-51.302-44.94-60.271-77.977l-0.209-0.903c-3.619-12.727-15.139-21.89-28.8-21.89-16.508 0-29.89 13.382-29.89 29.89 0 2.847 0.398 5.602 1.142 8.211l-0.051-0.211c13.438 49.504 45.223 89.996 87.422 114.557l0.898 0.483c4.27 2.501 9.402 3.978 14.88 3.978 16.468 0 29.818-13.35 29.818-29.818 0-10.991-5.946-20.592-14.797-25.764l-0.141-0.076zM323.68 640c0 0.111 0 0.242 0 0.373 0 44.473 7.738 87.139 21.94 126.724l-0.82-2.618c-9.12 0-18.24 1.28-27.52 1.28-175.131-0.13-317.052-142.131-317.052-317.28 0-175.229 142.051-317.28 317.28-317.28 112.914 0 212.051 58.983 268.282 147.819l0.769 1.301c-153.717 50.115-262.847 192.149-262.88 359.676v0.004zM252.32 560c-29.378-17.096-51.066-44.674-60.107-77.494l-0.213-0.906c-3.619-12.727-15.139-21.89-28.8-21.89-16.508 0-29.89 13.382-29.89 29.89 0 2.847 0.398 5.602 1.142 8.211l-0.051-0.211c13.438 49.504 45.223 89.996 87.422 114.557l0.898 0.483c4.259 2.438 9.362 3.876 14.8 3.876 16.677 0 30.196-13.519 30.196-30.196 0-11.238-6.139-21.043-15.247-26.242l-0.148-0.078z" />
<glyph unicode="&#xe909;" d="M149.12 58.4h-72.64l51.52 51.36c26.757 26.798 44.802 62.302 49.52 101.897l0.080 0.823c-118.72 77.6-177.6 190.24-177.6 308.32 0 217.92 200.16 439.2 513.76 439.2 332.16 0 510.24-203.68 510.24-420.16s-180-421.28-510.24-421.28c-61.202 0.060-120.511 8.053-176.989 23.007l4.829-1.087c-48.748-50.433-116.923-81.823-192.432-82.080h-0.048z" />
<glyph unicode="&#xe90a;" d="M1024 539.84c0 216.48-178.080 420.16-510.24 420.16v-841.44c330.24 0 510.24 203.52 510.24 421.28z" />
<glyph unicode="&#xe90b;" d="M553.12 702.080v74.56h-130.080l94.24-78.56q17.76 2.72 35.84 4z" />
<glyph unicode="&#xe90c;" d="M705.28 888.64h-131.2l-18.24-97.28h181.6z" />
<glyph unicode="&#xe90d;" d="M544 888.64h-131.2l-32-97.28h181.44z" />
<glyph unicode="&#xe90e;" d="M691.84 776.64h-130.080v-74.56q18.080-1.28 35.84-4z" />
<glyph unicode="&#xe90f;" d="M835.52 529.6c-329.44 379.2-867.52-80.32-566.080-462.88 329.92-354.72 843.52 85.44 566.080 462.88zM755.52 163.36c-204.64-275.36-595.52 8.48-412.8 285.76 206.56 266.56 586.24-12.64 413.6-285.76z" />
<glyph unicode="&#xe910;" d="M692 658.4v-148.32c36.862-33.1 59.944-80.912 59.944-134.114 0-66.219-35.758-124.086-89.017-155.347l-0.847-0.459c-18.059-10.455-30.026-29.664-30.080-51.672v-92.488c33.137 0 60-26.863 60-60v0-60h-180v157.12c-0.026 33.118-26.879 59.955-60 59.955-6.694 0-13.131-1.096-19.143-3.119l0.423 0.123-48-16c-17.397-45.923-60.922-78.020-111.973-78.24h59.973c32.531-0.716 58.638-27.216 58.72-59.832v-60.008h-189.92c-0.192-0.001-0.419-0.001-0.646-0.001-99.701 0-180.619 80.415-181.434 179.924v0.077c0 336 333.6 353.76 402.24 432 49.556 0.182 89.669 40.351 89.76 89.911v282.089h184.96c42.208-0.034 78.771-24.168 96.675-59.383l0.285-0.617c17.612-34.625 52.352-58.279 92.757-59.834l0.203-0.006c10.579-50.454 45.328-90.965 91.308-109.402l1.012-0.358-4.32-8.64c-20.447-37.071-59.28-61.766-103.882-61.766-0.435 0-0.87 0.002-1.304 0.007l0.066-0.001h-92.96c-30.743 0.006-59.9 6.786-86.065 18.927l1.265-0.527z" />
<glyph unicode="&#xe911;" d="M891.040 820h112.96c0-0.023 0-0.050 0-0.077 0-39.811-9.15-77.484-25.462-111.033l0.662 1.51c-46.927 18.837-81.613 59.338-91.988 108.782l-0.172 0.978h4.16z" />
<glyph unicode="&#xe912;" d="M512 940v-282.080c-0.091-49.569-40.204-89.738-89.743-89.92h-0.017c-49.625 0.091-89.829 40.295-89.92 89.911v52.329c0.030 33.125 13.477 63.103 35.199 84.799l0.001 0.001z" />
<glyph unicode="&#xe913;" d="M724 820c0-11.046-8.954-20-20-20s-20 8.954-20 20c0 11.046 8.954 20 20 20s20-8.954 20-20z" />
<glyph unicode="&#xe914;" d="M140 392c0-11.046-8.954-20-20-20s-20 8.954-20 20c0 11.046 8.954 20 20 20s20-8.954 20-20z" />
<glyph unicode="&#xe915;" d="M202.080-64h189.92c11.046 0 20 8.954 20 20v0 60c0 0.008 0 0.018 0 0.027 0 32.975-19.951 61.29-48.44 73.534l-0.52 0.199c15.273 13.016 27.586 29.016 36.119 47.146l0.361 0.854 40 13.12c3.726 1.266 8.018 1.997 12.48 1.997 22.091 0 40-17.909 40-40 0-0.027 0-0.054 0-0.081v0.004-157.12c0.18-10.907 9.064-19.68 19.997-19.68 0.001 0 0.002 0 0.003 0h180c11.046 0 20 8.954 20 20v0 60c-0.009 37.067-25.227 68.242-59.442 77.314l-0.558 0.126v75.040c0 0.011 0 0.024 0 0.037 0 14.648 7.969 27.435 19.809 34.261l0.191 0.102c60.191 35.227 99.978 99.563 99.978 173.193 0 55.921-22.951 106.482-59.947 142.776l-0.032 0.031v110.72c19.388-6.084 41.683-9.592 64.796-9.6h92.964c103.68 0 154.24 100 154.24 200 0 11.046-8.954 20-20 20v0h-116.32c-33.127 1.264-61.47 20.557-75.608 48.298l-0.232 0.502c-21.402 42.531-64.707 71.2-114.707 71.2-0.061 0-0.121 0-0.182 0h-184.951c-5.484-0.008-10.454-2.205-14.083-5.763l-144.957-144.957c-25.303-25.185-40.961-60.040-40.961-98.553 0-0.171 0-0.343 0.001-0.514v0.027-52.32c0.12-43.965 25.995-81.857 63.327-99.396l0.673-0.284c-18.080-9.92-40.96-19.84-65.76-30.72-50.11-20.738-92.185-42.181-132.365-66.446l4.365 2.446c-5.26-3.656-8.66-9.668-8.66-16.474 0-11.046 8.954-20 20-20 3.593 0 6.964 0.947 9.878 2.606l-0.099-0.052c34.587 20.994 75.246 41.638 117.464 59.294l6.216 2.306c45.6 19.84 82.4 36 105.12 57.44 56.673 4.931 100.826 52.088 100.96 109.586v261.774h163.84c0.099 0 0.216 0.001 0.333 0.001 34.38 0 64.154-19.715 78.636-48.456l0.231-0.505c18.502-36.593 53.057-62.747 94.148-69.343l0.732-0.097c12.957-43.305 41.589-78.496 79.157-99.722l0.843-0.438c-18.055-25.212-47.253-41.447-80.243-41.447-0.421 0-0.841 0.003-1.261 0.008l0.064-0.001h-92.8c-0.028 0-0.061 0-0.093 0-51.008 0-97.189 20.666-130.628 54.081l0.001-0.001c-3.624 3.624-8.63 5.865-14.16 5.865-11.060 0-20.025-8.966-20.025-20.025 0-5.53 2.241-10.536 5.865-14.16v0c15.578-15.545 33.438-28.812 53.032-39.253l1.208-0.587v-135.84c0.023-5.912 2.607-11.216 6.7-14.863l0.020-0.017c32.796-29.425 53.334-71.943 53.334-119.257 0-58.867-31.791-110.309-79.141-138.094l-0.753-0.408c-24.054-14-40.003-39.6-40.16-68.938v-92.502c0-11.046 8.954-20 20-20v0c22.091 0 40-17.909 40-40v0-40h-140v137.12c-0.004 44.18-35.82 79.993-80 79.993-8.925 0-17.508-1.461-25.524-4.158l0.564 0.165-16-5.12c0 4 0 7.84 0 11.84 0 84.32-59.040 124.8-65.92 134.080-3.624 3.624-8.63 5.865-14.16 5.865-11.060 0-20.025-8.966-20.025-20.025 0-5.53 2.241-10.536 5.865-14.16v0c7.36-9.76 54.080-40.16 54.080-105.92-0.266-54.664-44.281-98.961-98.812-99.679l-0.068-0.001c-11.046 0-20-8.954-20-20s8.954-20 20-20v0h60c22.091 0 40-17.909 40-40v0-40h-170.080c-0.192-0.001-0.418-0.001-0.645-0.001-88.623 0-160.551 71.48-161.274 159.932v0.069c-0.070 2.59-0.109 5.64-0.109 8.699 0 60.945 15.753 118.211 43.41 167.947l-0.901-1.766c1.012 2.313 1.602 5.009 1.602 7.842 0 11.046-8.954 20-20 20-6.522 0-12.314-3.121-15.965-7.952l-0.036-0.050c-30.262-53.76-48.089-118.016-48.089-186.436 0-2.913 0.032-5.818 0.097-8.715l-0.008 0.431c0.816-110.631 90.689-200.001 201.435-200.001 0.171 0 0.341 0 0.512 0.001h-0.026zM492 657.92c-0.090-38.523-31.25-69.739-69.743-69.92h-0.017c-0.048 0-0.104 0-0.16 0-38.648 0-69.989 31.285-70.080 69.911v52.329c0 0.084 0 0.184 0 0.284 0 27.526 11.193 52.438 29.276 70.432l110.724 110.724zM913.92 800h69.28c-2.075-23.024-7.122-44.251-14.788-64.179l0.548 1.619c-24.665 14.327-43.781 35.869-54.722 61.713l-0.318 0.847z" />
<glyph unicode="&#xe916;" glyph-name="Excelcius_SVG-07" d="M859.68 171.84l-129.12 29.28v-10.24c0-16.421-4.395-31.816-12.071-45.073l0.231 0.433-120.16-210.24h395.52c16.544 0.091 29.92 13.523 29.92 30.080 0 0 0 0 0 0v0c-0.084 99.951-69.585 183.645-162.891 205.478l-1.429 0.282zM670.56 190.88v52.48c-44.908-28.868-99.731-46.021-158.56-46.021s-113.652 17.153-159.74 46.73l1.18-0.709v-28.48l-189.12-43.040c-94.787-22.127-164.314-105.903-164.32-205.919v-0.001c0.091-16.544 13.523-29.92 30.080-29.92 0 0 0 0 0 0h481.92c0.009 0 0.019 0 0.030 0 11.075 0 20.752 5.985 25.973 14.898l0.077 0.142 128 224.96c2.504 4.269 3.988 9.4 4 14.876v0.004zM608 891.52c5.44 0 10.88 0 16 0-21.626 40.441-63.571 67.49-111.833 67.49-48.516 0-90.648-27.333-111.836-67.441l-0.332-0.689c5.44 0 10.88 0 16 0h192zM672 762.88c38.608-0.157 74.396-12.097 103.99-32.408l-0.63 0.408c-32.615 60.313-95.223 100.691-167.3 101.12h-192.060c-72.264-0.045-135.129-40.24-167.501-99.483l-0.499-0.997c28.964 19.903 64.752 31.843 103.32 32h0.040zM330.88 342.24c43.561-51.975 108.508-84.79 181.12-84.79s137.559 32.815 180.821 84.424l0.299 0.367 37.28 44.64c42.559 50.875 68.463 116.955 68.64 189.081v0.039c-0.091 69.772-56.628 126.309-126.391 126.4h-320.649c-69.772-0.091-126.309-56.628-126.4-126.391v-0.009c0.056-72.335 25.981-138.604 69.020-190.068l-0.38 0.468zM151.84 328.32c8.417-40.793 44.036-71.028 86.719-71.040h0.001c0.024 0 0.051 0 0.079 0 24.779 0 46.873 11.496 61.24 29.445l0.12 0.155q-7.84 8.16-15.2 16.8l-37.28 44.64c-51.247 61.238-82.416 140.805-82.56 227.649v0.031c0 0.016 0 0.034 0 0.053 0 10.546 0.873 20.888 2.55 30.959l-0.15-1.092c-29.24-24.954-47.661-61.843-47.661-103.033 0-9.23 0.925-18.244 2.687-26.954l-0.146 0.867zM776.48 348.48l-37.28-44.48q-7.36-8.8-15.2-16.8c14.487-18.105 36.582-29.6 61.361-29.6 0.028 0 0.056 0 0.084 0h-0.004c42.684 0.012 78.303 30.247 86.621 70.467l0.099 0.573 29.76 148.48c1.685 8.007 2.649 17.208 2.649 26.634 0 41.241-18.465 78.169-47.579 102.968l-0.19 0.158c1.432-8.695 2.25-18.715 2.25-28.926 0-0.687-0.004-1.373-0.011-2.059l0.001 0.105c-0.198-86.816-31.358-166.316-83.018-228.082l0.458 0.562z" />
<glyph unicode="&#xe917;" d="M761.28 261.6h-62.88v-62.88c0-0.038 0-0.083 0-0.128 0-29.284-2.971-57.873-8.628-85.484l0.468 2.732c47.059-24.406 102.738-38.719 161.76-38.72v0c0.239-0.007 0.521-0.011 0.804-0.011 16.524 0 29.92 13.396 29.92 29.92 0 0.173-0.001 0.345-0.004 0.517v-0.026c0 0.082 0 0.178 0 0.275 0 59.038-14.313 114.732-39.658 163.803l0.938-1.998c-24.879-5.189-53.468-8.16-82.752-8.16-0.045 0-0.090 0-0.135 0h0.007z" />
<glyph unicode="&#xe918;" d="M262.72 634.4h62.88v62.88c0 0.033 0 0.073 0 0.112 0 29.289 2.971 57.884 8.628 85.5l-0.468-2.732c-47.073 24.407-102.768 38.72-161.805 38.72-0.097 0-0.193 0-0.29 0h0.015c-0.146 0.003-0.318 0.004-0.491 0.004-16.524 0-29.92-13.396-29.92-29.92 0-0.283 0.004-0.565 0.012-0.845l-0.001 0.041c0.001-59.022 14.314-114.701 39.658-163.757l-0.938 1.997c24.884 5.189 53.479 8.16 82.768 8.16 0.040 0 0.079 0 0.119 0h-0.006z" />
<glyph unicode="&#xe919;" d="M698.4 634.4h62.88c0.047 0 0.103 0 0.16 0 29.272 0 57.851-2.971 85.45-8.628l-2.73 0.467c24.406 47.059 38.719 102.738 38.72 161.76v0c0.007 0.239 0.011 0.521 0.011 0.804 0 16.524-13.396 29.92-29.92 29.92-0.173 0-0.345-0.001-0.517-0.004h0.026c-0.082 0-0.178 0-0.275 0-59.038 0-114.732-14.313-163.803-39.658l1.998 0.938c5.189-24.879 8.16-53.468 8.16-82.752 0-0.045 0-0.090 0-0.135v0.007z" />
<glyph unicode="&#xe91a;" d="M325.6 261.6h-62.88c-0.038 0-0.083 0-0.128 0-29.284 0-57.873 2.971-85.484 8.628l2.732-0.468c-24.407-47.073-38.72-102.768-38.72-161.805 0-0.097 0-0.193 0-0.29v0.015c-0.003-0.146-0.004-0.318-0.004-0.491 0-16.524 13.396-29.92 29.92-29.92 0.283 0 0.565 0.004 0.845 0.012l-0.041-0.001c59.022 0.001 114.701 14.314 163.757 39.658l-1.997-0.938c-5.189 24.87-8.16 53.448-8.16 82.72 0 0.056 0 0.112 0 0.168v-0.009z" />
<glyph unicode="&#xe91b;" d="M262.72 574.4c-0.319 0.001-0.696 0.002-1.074 0.002-98.654 0-187.953-40.057-252.518-104.794l-0.008-0.008c-5.693-5.481-9.229-13.168-9.229-21.68s3.536-16.199 9.219-21.671l0.009-0.009c64.558-64.649 153.792-104.642 252.367-104.642 0.434 0 0.867 0.001 1.3 0.002h106.653c-29.832 33.441-48.063 77.791-48.063 126.4s18.231 92.959 48.228 126.588l-0.165-0.188z" />
<glyph unicode="&#xe91c;" d="M638.4 590.56v106.72c0.001 0.319 0.002 0.696 0.002 1.073 0 98.575-39.993 187.809-104.638 252.363l-0.004 0.004c-5.481 5.693-13.168 9.229-21.68 9.229s-16.199-3.536-21.671-9.219l-0.009-0.009c-64.744-64.573-104.801-153.872-104.801-252.526 0-0.321 0-0.643 0.001-0.964v0.050-106.72c33.441 29.832 77.791 48.063 126.4 48.063s92.959-18.231 126.588-48.228l-0.188 0.165z" />
<glyph unicode="&#xe91d;" d="M385.6 305.44v-106.72c-0.001-0.319-0.002-0.696-0.002-1.074 0-98.654 40.057-187.953 104.794-252.518l0.008-0.008c5.481-5.693 13.168-9.229 21.68-9.229s16.199 3.536 21.671 9.219l0.009 0.009c64.649 64.558 104.642 153.792 104.642 252.367 0 0.434-0.001 0.867-0.002 1.3v-0.067 106.72c-33.441-29.832-77.791-48.063-126.4-48.063s-92.959 18.231-126.588 48.228l0.188-0.165z" />
<glyph unicode="&#xe91e;" d="M1014.88 469.6c-64.573 64.745-153.872 104.802-252.526 104.802-0.378 0-0.755-0.001-1.132-0.002h-106.662c29.832-33.441 48.063-77.791 48.063-126.4s-18.231-92.959-48.228-126.588l0.165 0.188h106.72c0.319-0.001 0.696-0.002 1.073-0.002 98.575 0 187.809 39.993 252.363 104.638l0.004 0.004c5.693 5.481 9.229 13.168 9.229 21.68s-3.536 16.199-9.219 21.671l-0.009 0.009z" />
<glyph unicode="&#xe91f;" d="M642.72 448c0-72.195-58.525-130.72-130.72-130.72s-130.72 58.525-130.72 130.72c0 72.195 58.525 130.72 130.72 130.72s130.72-58.525 130.72-130.72z" />
<glyph unicode="&#xe920;" d="M449.28 687.2c0-88.631-71.849-160.48-160.48-160.48s-160.48 71.849-160.48 160.48c0 88.631 71.849 160.48 160.48 160.48s160.48-71.849 160.48-160.48z" />
<glyph unicode="&#xe921;" d="M809.76 262.4c0.261-0.001 0.571-0.002 0.88-0.002 94.464 0 171.042 76.578 171.042 171.042 0 94.155-76.077 170.54-170.115 171.040h-0.048c-27.293 102.471-119.255 176.73-228.56 176.73s-201.266-74.259-228.185-175.080l-0.375-1.65c-94.257-0.273-170.561-76.746-170.561-171.040 0-94.463 76.578-171.041 171.041-171.041 0.169 0 0.337 0 0.506 0.001h-0.026z" />
<glyph unicode="&#xe922;" d="M944.96 567.36c-30.652 31.101-71.966 51.622-118.010 55.63l-0.71 0.050c-34.269 103.741-130.345 177.281-243.597 177.281-48.533 0-93.911-13.505-132.582-36.963l1.138 0.641c-13.070 27.002-31.653 49.478-54.425 66.71l-0.455 0.33c-29.752 22.671-67.442 36.322-108.321 36.322-99.235 0-179.68-80.445-179.68-179.68 0-0.226 0-0.452 0.001-0.677v0.035c0.147-64.106 33.724-120.337 84.216-152.202l0.744-0.438c-18.198-28.647-29.001-63.543-29.001-100.962 0-105.067 85.173-190.24 190.24-190.24 0.296 0 0.591 0.001 0.887 0.002h140.595c10.604 0 19.2 8.596 19.2 19.2s-8.596 19.2-19.2 19.2h-140.64c-83.859 0-151.84 67.981-151.84 151.84s67.981 151.84 151.84 151.84c83.859 0 151.84-67.981 151.84-151.84v0c0-10.604 8.596-19.2 19.2-19.2s19.2 8.596 19.2 19.2v0c-0.134 96.278-71.647 175.812-164.449 188.529l-0.991 0.111c31.964 82.502 110.689 139.938 202.828 139.938 100.41 0 184.889-68.21 209.627-160.823l0.345-1.516c2.191-8.286 9.58-14.31 18.39-14.4h0.010c83.604-0.454 151.202-68.333 151.202-152 0-83.948-68.054-152.002-152.002-152.002-0.281 0-0.562 0.001-0.843 0.002h-140.757c-10.604 0-19.2-8.596-19.2-19.2s8.596-19.2 19.2-19.2h140.64c0.025 0 0.054 0 0.083 0 105.067 0 190.24 85.173 190.24 190.24 0 52.236-21.053 99.554-55.136 133.933l0.013-0.013zM339.84 623.040c-48.152-4.054-90.634-25.525-121.692-58.009l-0.068-0.071c-42.452 24.9-70.506 70.311-70.506 122.275 0 78.027 63.253 141.28 141.28 141.28 58.649 0 108.952-35.737 130.319-86.624l0.347-0.931c-36.512-30.474-64.135-70.44-79.168-116.122l-0.512-1.798z" />
<glyph unicode="&#xe923;" d="M35.2 706.4c-0.229 0.010-0.498 0.015-0.768 0.015-10.604 0-19.2-8.596-19.2-19.2s8.596-19.2 19.2-19.2c10.604 0 19.2 8.596 19.2 19.2 0 5.306-2.152 10.109-5.632 13.584v0c-3.305 3.28-7.788 5.377-12.759 5.599l-0.041 0.001z" />
<glyph unicode="&#xe924;" d="M288.8 921.6c10.604 0 19.2 8.596 19.2 19.2v0c0 10.604-8.596 19.2-19.2 19.2s-19.2-8.596-19.2-19.2c0-10.604 8.596-19.2 19.2-19.2v0z" />
<glyph unicode="&#xe925;" d="M109.44 527.040c-10.584-0.027-19.153-8.613-19.153-19.2 0-10.604 8.596-19.2 19.2-19.2s19.2 8.596 19.2 19.2c0 5.314-2.159 10.123-5.647 13.599l-0.001 0.001c-3.492 3.457-8.296 5.595-13.599 5.6h-0.001z" />
<glyph unicode="&#xe926;" d="M468.16 848c10.584 0.027 19.153 8.613 19.153 19.2 0 10.604-8.596 19.2-19.2 19.2s-19.2-8.596-19.2-19.2c0-5.314 2.159-10.123 5.647-13.599l0.001-0.001c3.492-3.457 8.296-5.595 13.599-5.6h0.001z" />
<glyph unicode="&#xe927;" d="M109.44 848c10.363 0.308 18.648 8.782 18.648 19.192 0 10.604-8.596 19.2-19.2 19.2s-19.2-8.596-19.2-19.2c0-5.636 2.429-10.705 6.297-14.218l0.016-0.014c3.415-3.081 7.961-4.966 12.947-4.966 0.173 0 0.346 0.002 0.518 0.007l-0.025-0.001z" />
<glyph unicode="&#xe928;" d="M583.040 281.6c-10.584-0.027-19.153-8.613-19.153-19.2 0-10.604 8.596-19.2 19.2-19.2s19.2 8.596 19.2 19.2c0 5.314-2.159 10.123-5.647 13.599l-0.001 0.001c-3.492 3.457-8.296 5.595-13.599 5.6h-0.001z" />
<glyph unicode="&#xe929;" d="M995.36 842.24l-89.12 89.12c-5.326 5.317-12.679 8.606-20.8 8.606s-15.474-3.288-20.8-8.606v0l-279.2-279.040h261.44l148.48 147.68c5.511 5.356 8.93 12.839 8.93 21.12s-3.419 15.764-8.923 21.113l-0.007 0.007z" />
<glyph unicode="&#xe92a;" d="M18.080 536.8c3.309-1.399 7.157-2.211 11.194-2.211 8.124 0 15.479 3.291 20.806 8.612v0l152.48 152.48 43.52-43.52h83.2l-84.96 84.96 152.48 152.64c5.317 5.326 8.606 12.679 8.606 20.8 0 16.247-13.161 29.42-29.404 29.44h-346.562c-16.259 0-29.44-13.181-29.44-29.44v0-346.56c0-0.012 0-0.026 0-0.040 0-12.159 7.371-22.596 17.888-27.087l0.192-0.073z" />
<glyph unicode="&#xe92b;" d="M91.84 501.6c-15.987-16.009-38.085-25.912-62.495-25.912-6.196 0-12.242 0.638-18.078 1.852l0.573-0.1q-4.96-20.48-7.84-41.6h869.76c-7.427 52.912-23.395 100.708-46.568 144.073l1.128-2.313c-4.972 9.542-14.772 15.955-26.074 16h-618.566z" />
<glyph unicode="&#xe92c;" d="M0 377.12s0-1.44 0-2.080c-0.051-2.494-0.080-5.434-0.080-8.381 0-242.475 196.565-439.040 439.040-439.040s439.040 196.565 439.040 439.040c0 2.947-0.029 5.887-0.087 8.82l0.007-0.439s0 1.44 0 2.080zM252 124.96c-16.259 0-29.44 13.181-29.44 29.44s13.181 29.44 29.44 29.44c16.259 0 29.44-13.181 29.44-29.44v0c0-16.259-13.181-29.44-29.44-29.44v0zM346.56 251.040c-16.259 0-29.44 13.181-29.44 29.44s13.181 29.44 29.44 29.44c16.259 0 29.44-13.181 29.44-29.44v0c0-16.259-13.181-29.44-29.44-29.44v0zM409.6 124.96c-16.259 0-29.44 13.181-29.44 29.44s13.181 29.44 29.44 29.44c16.259 0 29.44-13.181 29.44-29.44v0c0-16.259-13.181-29.44-29.44-29.44v0z" />
<glyph unicode="&#xe92d;" d="M700.8 940h-593.6l-49.44-128h692.48z" />
<glyph unicode="&#xe92e;" d="M649.6-44h-491.2l-100.64 856h692.48z" />
<glyph unicode="&#xe92f;" d="M678.4 208l43.2 400h-635.040l45.44-400z" />
<glyph unicode="&#xe930;" d="M508 408c0-57.438-46.562-104-104-104s-104 46.562-104 104c0 57.438 46.562 104 104 104s104-46.562 104-104z" />
<glyph unicode="&#xe931;" d="M788 832h-24l-44 115.2c-2.971 7.556-10.203 12.807-18.662 12.807-0.189 0-0.378-0.003-0.566-0.008l0.028 0.001h-593.6c-0.018 0-0.040 0-0.061 0-8.456 0-15.686-5.248-18.612-12.665l-0.047-0.136-44.48-115.2h-24c-11.046 0-20-8.954-20-20s8.954-20 20-20v0h20l98.4-838.4c1.239-9.965 9.656-17.601 19.856-17.601 0.051 0 0.102 0 0.152 0.001h491.192c10.193 0.008 18.601 7.641 19.83 17.502l0.010 0.098 98.56 838.4h20c11.046 0 20 8.954 20 20s-8.954 20-20 20v0zM708 628h-214.24c-11.046 0-20-8.954-20-20s8.954-20 20-20v0h210.24l-42.24-360h-515.2l-42.4 360h210.080c11.046 0 20 8.954 20 20s-8.954 20-20 20v0h-214.72l-19.52 164h647.84zM120.96 920h566.080l34.080-88h-634.24zM632-24h-456l-24.8 212h504.8z" />
<glyph unicode="&#xe932;" d="M280 408c0-68.483 55.517-124 124-124s124 55.517 124 124c0 68.483-55.517 124-124 124v0c-68.447-0.091-123.909-55.553-124-123.991v-0.009zM488 408c0-46.392-37.608-84-84-84s-84 37.608-84 84c0 46.392 37.608 84 84 84v0c46.355-0.091 83.909-37.645 84-83.991v-0.009z" />
<glyph unicode="&#xe933;" d="M404 588c0.037 0 0.081 0 0.124 0 11.046 0 20 8.954 20 20s-8.954 20-20 20c-11.046 0-20-8.954-20-20 0-5.492 2.214-10.467 5.797-14.081l-0.001 0.001c3.606-3.614 8.575-5.866 14.070-5.92h0.010z" />
</font>
</defs>
</svg>
