<svg id="Layer_1" data-name="Layer 1" xmlns="http://www.w3.org/2000/svg" viewBox="0 0 64 64"><defs><style>.cls-1{fill:#feb37b;}.cls-2{fill:#edf7fa;}</style></defs><title>Excelcius_SVG</title><g id="_Group_" data-name="&lt;Group&gt;"><g id="_Group_2" data-name="&lt;Group&gt;"><circle id="_Path_" data-name="&lt;Path&gt;" class="cls-1" cx="18.05" cy="17.05" r="10.03"/><path id="_Path_2" data-name="&lt;Path&gt;" class="cls-2" d="M50.61,43.6a10.69,10.69,0,0,0,.11-21.38,14.76,14.76,0,0,0-28.57,0,10.69,10.69,0,0,0,.06,21.38Z"/></g><g id="_Group_3" data-name="&lt;Group&gt;"><path id="_Compound_Path_" data-name="&lt;Compound Path&gt;" d="M59.06,24.54a11.81,11.81,0,0,0-7.42-3.48A16,16,0,0,0,28.2,12.25a11.35,11.35,0,0,0-3.43-4.19,11.23,11.23,0,0,0-18,9,11.27,11.27,0,0,0,5.31,9.54A11.89,11.89,0,0,0,22.21,44.8H31a1.2,1.2,0,1,0,0-2.4H22.21a9.49,9.49,0,1,1,9.49-9.49,1.2,1.2,0,0,0,2.4,0A11.91,11.91,0,0,0,23.76,21.12a13.56,13.56,0,0,1,25.8,1.4,1.2,1.2,0,0,0,1.15.9,9.49,9.49,0,0,1-.1,19H41.81a1.2,1.2,0,0,0,0,2.4h8.79a11.89,11.89,0,0,0,8.45-20.26ZM21.24,21.06a11.86,11.86,0,0,0-7.61,3.63,8.83,8.83,0,1,1,12.59-11A15.9,15.9,0,0,0,21.24,21.06Z"/><path id="_Path_3" data-name="&lt;Path&gt;" d="M2.2,15.85A1.2,1.2,0,1,0,3,16.2,1.21,1.21,0,0,0,2.2,15.85Z"/><path id="_Path_4" data-name="&lt;Path&gt;" d="M18.05,2.4a1.2,1.2,0,0,0,1.2-1.2,1.2,1.2,0,1,0-1.2,1.2Z"/><path id="_Path_5" data-name="&lt;Path&gt;" d="M6.84,27.06a1.2,1.2,0,1,0,.85.35A1.21,1.21,0,0,0,6.84,27.06Z"/><path id="_Path_6" data-name="&lt;Path&gt;" d="M29.26,7a1.2,1.2,0,1,0-.85-.35A1.21,1.21,0,0,0,29.26,7Z"/><path id="_Path_7" data-name="&lt;Path&gt;" d="M6.84,7A1.2,1.2,0,1,0,6,6.69,1.21,1.21,0,0,0,6.84,7Z"/><path id="_Path_8" data-name="&lt;Path&gt;" d="M36.44,42.4a1.2,1.2,0,1,0,.85.35A1.21,1.21,0,0,0,36.44,42.4Z"/></g></g></svg>