<svg id="Layer_1" data-name="Layer 1" xmlns="http://www.w3.org/2000/svg" viewBox="0 0 64 64"><defs><style>.cls-1{fill:#5f6dab;}.cls-2{fill:#edf7fa;}</style></defs><title>Excelcius_SVG</title><g id="Speech_Bubble" data-name="Speech Bubble"><path class="cls-1" d="M9.32,56.35H4.78L8,53.14a10.85,10.85,0,0,0,3.1-6.42C3.68,41.87,0,34.83,0,27.45,0,13.83,12.51,0,32.11,0,52.87,0,64,12.73,64,26.26S52.75,52.59,32.11,52.59a43.26,43.26,0,0,1-10.76-1.37A16.8,16.8,0,0,1,9.32,56.35Z"/></g><path class="cls-2" d="M64,26.26C64,12.73,52.87,0,32.11,0V52.59C52.75,52.59,64,39.87,64,26.26Z"/></svg>