<svg id="Layer_1" data-name="Layer 1" xmlns="http://www.w3.org/2000/svg" viewBox="0 0 64 64"><defs><style>.cls-1{fill:#fe8167;}.cls-2{fill:#5f6dab;}.cls-3{fill:#feb37b;}.cls-4{fill:#edf7fa;}</style></defs><title>Excelcius_SVG</title><g id="_Group_" data-name="&lt;Group&gt;"><path id="_Path_" data-name="&lt;Path&gt;" class="cls-1" d="M43.8,1.25H6.7l-3.09,8H46.89Z"/><path id="_Path_2" data-name="&lt;Path&gt;" class="cls-2" d="M40.6,62.75H9.9L3.61,9.25H46.89Z"/><path id="_Path_3" data-name="&lt;Path&gt;" class="cls-3" d="M42.4,47l2.7-25H5.41L8.25,47Z"/><circle id="_Path_4" data-name="&lt;Path&gt;" class="cls-4" cx="25.25" cy="34.5" r="6.5"/><g id="_Group_2" data-name="&lt;Group&gt;"><path id="_Compound_Path_" data-name="&lt;Compound Path&gt;" d="M49.25,8h-1.5L45,.8A1.25,1.25,0,0,0,43.8,0H6.7A1.25,1.25,0,0,0,5.53.8L2.75,8H1.25a1.25,1.25,0,0,0,0,2.5H2.5L8.65,62.9A1.25,1.25,0,0,0,9.9,64H40.6a1.25,1.25,0,0,0,1.24-1.1L48,10.5h1.25a1.25,1.25,0,1,0,0-2.5Zm-5,12.75H30.86a1.25,1.25,0,0,0,0,2.5H44l-2.64,22.5H9.16L6.51,23.25H19.64a1.25,1.25,0,0,0,0-2.5H6.22L5,10.5H45.49ZM7.56,2.5H42.94L45.07,8H5.43Zm31.94,59H11L9.45,48.25H41Z"/><path id="_Compound_Path_2" data-name="&lt;Compound Path&gt;" d="M17.5,34.5a7.75,7.75,0,1,0,7.75-7.75A7.76,7.76,0,0,0,17.5,34.5Zm13,0a5.25,5.25,0,1,1-5.25-5.25A5.26,5.26,0,0,1,30.5,34.5Z"/><path id="_Path_5" data-name="&lt;Path&gt;" d="M25.25,23.25a1.25,1.25,0,1,0-.88-.37A1.26,1.26,0,0,0,25.25,23.25Z"/></g></g></svg>