<svg id="Layer_1" data-name="Layer 1" xmlns="http://www.w3.org/2000/svg" viewBox="0 0 64 64"><defs><style>.cls-1{fill:#feb37b;}.cls-2{fill:#5f6dab;}.cls-3{fill:#edf7fa;}</style></defs><title>Excelcius_SVG</title><path class="cls-1" d="M47.58,43.65H43.65v3.93a26.48,26.48,0,0,1-.51,5.18,22.33,22.33,0,0,0,10.11,2.42,1.87,1.87,0,0,0,1.92-1.9,22.34,22.34,0,0,0-2.42-10.13,26.48,26.48,0,0,1-5.18.51Z"/><path class="cls-1" d="M16.42,20.35h3.93V16.42a26.49,26.49,0,0,1,.51-5.18A22.34,22.34,0,0,0,10.73,8.82a1.87,1.87,0,0,0-1.9,1.92,22.33,22.33,0,0,0,2.42,10.11,26.49,26.49,0,0,1,5.18-.51Z"/><path class="cls-1" d="M43.65,20.35h3.93a26.46,26.46,0,0,1,5.18.51,22.33,22.33,0,0,0,2.42-10.11,1.87,1.87,0,0,0-1.9-1.92,22.34,22.34,0,0,0-10.13,2.42,26.48,26.48,0,0,1,.51,5.18Z"/><path class="cls-1" d="M20.35,43.65H16.42a26.48,26.48,0,0,1-5.18-.51A22.34,22.34,0,0,0,8.82,53.27a1.87,1.87,0,0,0,1.92,1.9,22.33,22.33,0,0,0,10.11-2.42,26.46,26.46,0,0,1-.51-5.18Z"/><path class="cls-2" d="M16.42,24.1A22.29,22.29,0,0,0,.57,30.65a1.88,1.88,0,0,0,0,2.71A22.29,22.29,0,0,0,16.42,39.9h6.67a11.89,11.89,0,0,1,0-15.8Z"/><path class="cls-2" d="M39.9,23.09V16.42A22.29,22.29,0,0,0,33.36.58a1.88,1.88,0,0,0-2.71,0A22.29,22.29,0,0,0,24.1,16.42v6.67a11.89,11.89,0,0,1,15.8,0Z"/><path class="cls-2" d="M24.1,40.91v6.67a22.29,22.29,0,0,0,6.55,15.85,1.88,1.88,0,0,0,2.71,0A22.29,22.29,0,0,0,39.9,47.58V40.91a11.89,11.89,0,0,1-15.8,0Z"/><path class="cls-2" d="M63.43,30.65A22.29,22.29,0,0,0,47.58,24.1H40.91a11.89,11.89,0,0,1,0,15.8h6.67a22.29,22.29,0,0,0,15.84-6.54,1.88,1.88,0,0,0,0-2.71Z"/><circle class="cls-3" cx="32" cy="32" r="8.17"/></svg>