<svg id="Layer_1" data-name="Layer 1" xmlns="http://www.w3.org/2000/svg" viewBox="0 0 64 64"><defs><style>.cls-1{fill:#feb37b;}.cls-2{fill:#fe8167;}</style></defs><title>Excelcius_SVG</title><path class="cls-1" d="M43.25,18.85v9.27a11.25,11.25,0,0,1-1.87,18.12,3.73,3.73,0,0,0-1.88,3.23v5.78A3.75,3.75,0,0,1,43.25,59v3.75H32V52.93a3.75,3.75,0,0,0-4.92-3.56l-3,1a7.5,7.5,0,0,1-7,4.89h3.75A3.75,3.75,0,0,1,24.5,59v3.75H12.63A11.34,11.34,0,0,1,1.25,51.5c0-21,20.85-22.11,25.14-27A5.63,5.63,0,0,0,32,18.88V1.25H43.56A6.78,6.78,0,0,1,49.62,5a6.78,6.78,0,0,0,5.81,3.74A9.39,9.39,0,0,0,61.2,15.6l-.27.54A7.39,7.39,0,0,1,54.36,20H48.55a12.8,12.8,0,0,1-5.3-1.15Z"/><path class="cls-2" d="M55.69,8.75h7.06A15.89,15.89,0,0,1,61.2,15.6a9.39,9.39,0,0,1-5.76-6.86h.26Z"/><path class="cls-2" d="M32,1.25V18.88a5.63,5.63,0,0,1-5.61,5.62h0a5.63,5.63,0,0,1-5.62-5.62V15.61a7.5,7.5,0,0,1,2.2-5.3Z"/><circle cx="44" cy="8.75" r="1.25"/><circle cx="7.5" cy="35.5" r="1.25"/><path d="M12.63,64H24.5a1.25,1.25,0,0,0,1.25-1.25V59a5,5,0,0,0-3.06-4.61,8.74,8.74,0,0,0,2.28-3l2.5-.82a2.5,2.5,0,0,1,3.28,2.38v9.82A1.25,1.25,0,0,0,32,64H43.25a1.25,1.25,0,0,0,1.25-1.25V59a5,5,0,0,0-3.75-4.84V49.47A2.47,2.47,0,0,1,42,47.32,12.5,12.5,0,0,0,44.5,27.57V20.65a14,14,0,0,0,4.05.6h5.81C60.84,21.25,64,15,64,8.75A1.25,1.25,0,0,0,62.75,7.5H55.48a5.53,5.53,0,0,1-4.74-3.05A8,8,0,0,0,43.56,0H32a1.26,1.26,0,0,0-.88.36h0L22.06,9.42a8.69,8.69,0,0,0-2.56,6.19v3.27a6.88,6.88,0,0,0,4,6.23c-1.13.62-2.56,1.24-4.11,1.92a60.86,60.86,0,0,0-8,4,1.25,1.25,0,0,0,1.32,2.12,58.86,58.86,0,0,1,7.73-3.85c2.85-1.24,5.15-2.25,6.57-3.59a6.89,6.89,0,0,0,6.31-6.85V2.5H43.56a5.5,5.5,0,0,1,4.95,3.06A8,8,0,0,0,54.44,9.9a10.56,10.56,0,0,0,5,6.26,6.15,6.15,0,0,1-5.09,2.59H48.55a11.55,11.55,0,0,1-8.17-3.38,1.25,1.25,0,0,0-1.77,1.77A14,14,0,0,0,42,19.63v8.49a1.25,1.25,0,0,0,.42.93,10,10,0,0,1-1.66,16.11,5,5,0,0,0-2.51,4.31v5.78A1.25,1.25,0,0,0,39.5,56.5,2.5,2.5,0,0,1,42,59v2.5H33.25V52.93a5,5,0,0,0-6.56-4.75l-1,.32c0-.25,0-.49,0-.74,0-5.27-3.69-7.8-4.12-8.38a1.25,1.25,0,1,0-1.77,1.77c.46.61,3.38,2.51,3.38,6.62A6.26,6.26,0,0,1,17,54a1.25,1.25,0,0,0,0,2.5h3.75a2.5,2.5,0,0,1,2.5,2.5v2.5H12.62A10.08,10.08,0,0,1,2.5,51.5,21.63,21.63,0,0,1,5.15,40.57,1.25,1.25,0,0,0,3,39.33,24.09,24.09,0,0,0,0,51.5,12.59,12.59,0,0,0,12.62,64ZM30.75,18.88a4.38,4.38,0,0,1-4.36,4.37h0A4.38,4.38,0,0,1,22,18.88V15.61a6.21,6.21,0,0,1,1.83-4.42l6.92-6.92ZM57.12,10h4.33a14.79,14.79,0,0,1-.89,3.91A8.07,8.07,0,0,1,57.12,10Z"/></svg>