<svg id="Layer_1" data-name="Layer 1" xmlns="http://www.w3.org/2000/svg" viewBox="0 0 64 64"><defs><style>.cls-1{fill:#feb37b;}</style></defs><title>Excelcius_SVG</title><path class="cls-1" d="M20.44,55.36c0,.13,0,.27,0,.41a6.56,6.56,0,0,1-1.93,4.67l0,0a1.86,1.86,0,0,0,2.68,2.59,10.27,10.27,0,0,0,3-7.3c0-.27,0-.53,0-.79a23.55,23.55,0,0,1-3.71.39Z"/><path class="cls-1" d="M44.4,43.38a6.59,6.59,0,0,1-1.92,5.07l-.9.9a10.67,10.67,0,0,0-1.33,13.43,1.86,1.86,0,0,0,3.1-2.07A6.94,6.94,0,0,1,44.21,52l.9-.9a10.28,10.28,0,0,0,3-8.09,23.55,23.55,0,0,1-3.71.39Z"/><path class="cls-1" d="M43.79,0A19.83,19.83,0,1,0,63.62,19.83,19.85,19.85,0,0,0,43.79,0ZM39.73,12.8a8.06,8.06,0,0,0-3.78,4.93,1.86,1.86,0,1,1-3.6-1,11.77,11.77,0,0,1,5.52-7.19,1.86,1.86,0,0,1,1.86,3.23Z"/><path class="cls-1" d="M20.23,20a23.45,23.45,0,0,1,1.32-7.78c-.57,0-1.14-.08-1.72-.08A19.83,19.83,0,1,0,36.66,42.48,23.6,23.6,0,0,1,20.23,20ZM15.77,25A8.06,8.06,0,0,0,12,29.9a1.86,1.86,0,1,1-3.6-1,11.77,11.77,0,0,1,5.52-7.19A1.86,1.86,0,1,1,15.77,25Z"/></svg>