<svg id="Layer_1" data-name="Layer 1" xmlns="http://www.w3.org/2000/svg" viewBox="0 0 64 64"><defs><style>.cls-1{fill:#bcdefa;}.cls-2{fill:#92cbf7;}.cls-3{fill:#5f6dab;}</style></defs><title>Excelcius_SVG</title><circle class="cls-1" cx="32" cy="32" r="32"/><path class="cls-2" d="M36.94,63.62A32,32,0,0,0,64,32q0-.39,0-.78l-7.36-7.36-1.87,1.43L44.07,14.6l-2.64,8.49L32,13.66,14.24,40.92Z"/><path class="cls-3" d="M30.24,47.87A24.63,24.63,0,0,1,19.93,14.6,24.63,24.63,0,0,1,30.24,47.87Z"/><path class="cls-3" d="M33.76,47.87A24.63,24.63,0,0,0,44.07,14.6h0A24.63,24.63,0,0,0,33.76,47.87Z"/><path class="cls-3" d="M32,48.49A24.63,24.63,0,0,1,7.37,23.86,24.63,24.63,0,0,1,32,48.49Z"/><path class="cls-3" d="M32,48.49A24.63,24.63,0,0,0,56.63,23.86,24.63,24.63,0,0,0,32,48.49Z"/><path class="cls-3" d="M32,48.49a24.63,24.63,0,0,1,0-34.83A24.63,24.63,0,0,1,32,48.49Z"/><path class="cls-3" d="M32,48.49h0a24.63,24.63,0,0,0,0-34.83Z"/></svg>