<svg id="Layer_1" data-name="Layer 1" xmlns="http://www.w3.org/2000/svg" viewBox="0 0 64 64"><defs><style>.cls-1{fill:#5f6dab;}.cls-2{fill:#fe8167;}.cls-3{fill:#feb37b;}</style></defs><title>Excelcius_SVG</title><path class="cls-1" d="M62.21,7.36,56.64,1.79a1.84,1.84,0,0,0-2.6,0L36.59,19.23H52.93L62.21,10A1.84,1.84,0,0,0,62.21,7.36Z"/><path class="cls-2" d="M1.13,26.45a1.84,1.84,0,0,0,2-.4l9.53-9.53,2.72,2.72h5.2l-5.31-5.31L24.8,4.39a1.84,1.84,0,0,0-1.3-3.14H1.84A1.84,1.84,0,0,0,0,3.09V24.75a1.84,1.84,0,0,0,1.13,1.7Z"/><path class="cls-3" d="M5.74,28.65a5.52,5.52,0,0,1-5,1.51q-.31,1.28-.49,2.6H54.61a26.91,26.91,0,0,0-2.84-8.86,1.84,1.84,0,0,0-1.63-1H11.48Z"/><path class="cls-3" d="M0,36.43s0,.09,0,.13a27.44,27.44,0,1,0,54.87,0s0-.09,0-.13ZM15.75,52.19a1.84,1.84,0,1,1,1.84-1.84A1.84,1.84,0,0,1,15.75,52.19Zm5.91-7.88a1.84,1.84,0,1,1,1.84-1.84A1.84,1.84,0,0,1,21.66,44.31Zm3.94,7.88a1.84,1.84,0,1,1,1.84-1.84A1.84,1.84,0,0,1,25.6,52.19Z"/></svg>