<svg id="Layer_1" data-name="Layer 1" xmlns="http://www.w3.org/2000/svg" viewBox="0 0 64 64"><defs><style>.cls-1{fill:#5f6dab;}</style></defs><title>Excelcius_SVG</title><path class="cls-1" d="M53.73,49.26l-8.07-1.83v.64a5.63,5.63,0,0,1-.74,2.79L37.41,64H62.13A1.88,1.88,0,0,0,64,62.12,13.2,13.2,0,0,0,53.73,49.26Z"/><path class="cls-1" d="M41.91,48.07V44.79a18.51,18.51,0,0,1-19.82,0v1.78L10.27,49.26A13.2,13.2,0,0,0,0,62.13,1.88,1.88,0,0,0,1.88,64H32a1.88,1.88,0,0,0,1.63-.94l8-14.06a1.87,1.87,0,0,0,.25-.93Z"/><path class="cls-1" d="M38,4.28c.34,0,.68,0,1,0A7.9,7.9,0,0,0,25,4.32c.34,0,.68,0,1,0H38Z"/><path class="cls-1" d="M42,12.32a11.58,11.58,0,0,1,6.46,2A11.93,11.93,0,0,0,38,8H26A11.93,11.93,0,0,0,15.5,14.28a11.58,11.58,0,0,1,6.46-2Z"/><path class="cls-1" d="M20.68,38.61a14.74,14.74,0,0,0,22.64,0l2.33-2.79A18.55,18.55,0,0,0,49.94,24a7.91,7.91,0,0,0-7.9-7.9H22a7.91,7.91,0,0,0-7.9,7.9,18.55,18.55,0,0,0,4.29,11.85Z"/><path class="cls-1" d="M9.49,39.48a5.53,5.53,0,0,0,5.42,4.44,4.9,4.9,0,0,0,3.84-1.85q-.49-.51-.95-1.05l-2.33-2.79A22.3,22.3,0,0,1,10.31,24a11.69,11.69,0,0,1,.15-1.87A8.45,8.45,0,0,0,7.64,30.2Z"/><path class="cls-1" d="M48.53,38.22,46.2,41q-.46.55-.95,1.05a4.9,4.9,0,0,0,3.84,1.85,5.53,5.53,0,0,0,5.42-4.44l1.86-9.28a8.45,8.45,0,0,0-2.82-8.11A11.69,11.69,0,0,1,53.69,24,22.31,22.31,0,0,1,48.53,38.22Z"/></svg>